<?xml version="1.0" encoding="UTF-8" standalone="no"?>
<!DOCTYPE svg PUBLIC "-//W3C//DTD SVG 1.1//EN" "http://www.w3.org/Graphics/SVG/1.1/DTD/svg11.dtd">
<svg width="100%" height="100%" viewBox="0 0 2481 3508" version="1.1" xmlns="http://www.w3.org/2000/svg" xmlns:xlink="http://www.w3.org/1999/xlink" xml:space="preserve" xmlns:serif="http://www.serif.com/" style="fill-rule:evenodd;clip-rule:evenodd;stroke-linecap:round;stroke-linejoin:round;stroke-miterlimit:1.5;">
    <path d="M562,1499L713,1499C713,1499 715.935,1165.43 716,1165C716.065,1164.57 728.692,931.291 1029.64,928C1304,925 1338.47,1169.11 1341,1168C1343.53,1166.89 1346,1498 1346,1498L1497,1499L1497,1165C1497,1165 1465.57,771.796 1029.64,774C634,776 564.641,1084.1 563,1170C561.359,1255.9 562,1499 562,1499Z" style="stroke:black;stroke-width:1px;"/>
    <g id="Layer1">
        <path d="M490,1513L1573,1516C1573,1516 1629.48,1544.31 1627,1593.73C1624.52,1643.15 1625,2545 1625,2545C1625,2545 1631.51,2615.3 1566,2611C1505,2607 547,2611 489,2608C488.86,2607.99 436.351,2613.86 433,2547C429.649,2480.14 438,1593.73 438,1593.73C438,1593.73 423.36,1524.27 490,1513ZM962,1973.18C930.281,1951.58 909.438,1915.17 909.438,1873.94C909.438,1807.71 963.208,1753.94 1029.44,1753.94C1095.67,1753.94 1149.44,1807.71 1149.44,1873.94C1149.44,1915.55 1128.21,1952.24 1096,1973.78L1096,2192L1095.64,2192C1092.17,2224.85 1063.64,2250.5 1029,2250.5C994.362,2250.5 965.829,2224.85 962.355,2192L962,2192L962,1973.18Z" style="stroke:black;stroke-width:1px;"/>
    </g>
</svg>
