<?xml version="1.0" encoding="UTF-8" standalone="no"?>
<!DOCTYPE svg PUBLIC "-//W3C//DTD SVG 1.1//EN" "http://www.w3.org/Graphics/SVG/1.1/DTD/svg11.dtd">
<svg width="100%" height="100%" viewBox="0 0 2481 3508" version="1.1" xmlns="http://www.w3.org/2000/svg" xmlns:xlink="http://www.w3.org/1999/xlink" xml:space="preserve" xmlns:serif="http://www.serif.com/" style="fill-rule:evenodd;clip-rule:evenodd;stroke-linecap:round;stroke-linejoin:round;stroke-miterlimit:1.5;">
    <path d="M570,1485L723,1488L725,917C725,917 744.382,677.916 1029.64,674C1321,670 1344.76,878.835 1346,906C1347.24,933.165 1351,1058 1351,1058C1351,1058 1398.83,1092.33 1399,1107C1399.17,1121.67 1352,1146 1352,1146L1353,1223C1353,1223 1346.53,1245.74 1384,1247C1421.47,1248.26 1484,1248 1484,1248C1484,1248 1503.12,1247 1503,1221C1502,1011 1499,904 1499,904C1499,904 1490.18,797.901 1423,703C1355.32,607.396 1228.55,518.993 1029.64,521C633.683,524.996 575.413,871.214 572,911C568.587,950.786 570,1485 570,1485Z" style="stroke:black;stroke-width:1px;"/>
    <g id="Layer1">
        <path d="M490,1513L1573,1516C1573,1516 1629.48,1544.31 1627,1593.73C1624.52,1643.15 1625,2545 1625,2545C1625,2545 1631.51,2615.3 1566,2611C1505,2607 547,2611 489,2608C488.86,2607.99 436.351,2613.86 433,2547C429.649,2480.14 438,1593.73 438,1593.73C438,1593.73 423.36,1524.27 490,1513ZM962,1973.18C930.281,1951.58 909.438,1915.17 909.438,1873.94C909.438,1807.71 963.208,1753.94 1029.44,1753.94C1095.67,1753.94 1149.44,1807.71 1149.44,1873.94C1149.44,1915.55 1128.21,1952.24 1096,1973.78L1096,2192L1095.64,2192C1092.17,2224.85 1063.64,2250.5 1029,2250.5C994.362,2250.5 965.829,2224.85 962.355,2192L962,2192L962,1973.18Z" style="stroke:black;stroke-width:1px;"/>
    </g>
</svg>
