<?xml version="1.0"?>
<svg xmlns:rdf="http://www.w3.org/1999/02/22-rdf-syntax-ns#" xmlns="http://www.w3.org/2000/svg" xmlns:cc="http://creativecommons.org/ns#" xmlns:dc="http://purl.org/dc/elements/1.1/" xmlns:svg="http://www.w3.org/2000/svg" id="svg2842" viewBox="0 0 143.03 118.94" version="1.1">
  <g id="layer1" transform="translate(157.23 -158.61)">
    <g id="g2867" fill-rule="evenodd">
      <path id="2" fill="#f00" d="m-15.677 277.54 1.0129-1.3501 0.46425-1.2657v-1.3079l-0.63306-1.6454-0.84408-1.1813-63.812-110.08-1.3083-1.3079-1.4349-0.71725-1.0129-0.0844-1.3927 0.50629-1.3083 1.2235-71.282 110.46v1.6876l0.42204 1.8986 0.80188 1.3923 1.2661 1.0126 1.8148 0.63286 0.88628 0.12657h136.36z"/>
      <path id="3" fill="#fff" d="m-38.763 263.37 0.84407-1.4345 0.21102-0.886-0.0844-1.2235-0.71747-1.7298-42.668-71.682-1.3083-1.1392-0.50644-0.16876-0.75967 0.0844-0.97069 0.59067-0.92848 1.2235-45.243 70.627v1.7298l0.42203 1.7298 0.80188 1.1813 1.1395 0.67505 1.2239 0.29533 88.544 0.12658z"/>
      <path id="4" d="m-76.197 251.89-0.0422-0.75943-0.12661-0.75943-0.21102-0.71725-0.29543-0.71724-0.33763-0.63286-0.46424-0.63286-0.50645-0.59067-0.54865-0.50629-0.59085-0.46409-0.67526-0.37972-0.67526-0.29533-0.75967-0.21096-0.71747-0.16876-0.75967-0.0422h-0.75967l-0.75967 0.12657-0.75967 0.16876-0.71746 0.29534-0.67526 0.33752-0.63306 0.42191-0.59085 0.4641-0.50645 0.54848-0.46424 0.59067-0.42204 0.67505-0.29543 0.67505-0.25322 0.71724-0.16882 0.75943-0.08441 0.75944v0.75943l0.08441 0.75943 0.16882 0.71724 0.25322 0.71724 0.33763 0.67505 0.37983 0.67505 0.46424 0.59067 0.54865 0.54848 0.59085 0.4641 0.63306 0.42191 0.67526 0.33752 0.71746 0.29534 0.71746 0.16876 0.75967 0.0844 0.75967 0.0422 0.75967-0.0844 0.75967-0.12657 0.71747-0.21096 0.67526-0.33752 0.67526-0.37972 0.59085-0.4219 0.59085-0.54848 0.50645-0.54848 0.42204-0.63286 0.33763-0.67505 0.29543-0.71724 0.21102-0.71724 0.12661-0.75944 0.0422-0.75943z"/>
      <path id="5" d="m-89.998 208.31 0.37984-2.0252 0.80187-1.8142 1.1817-1.4345 1.7304-1.0548 2.279-0.63286h1.3505l1.8148 0.50629 1.5615 0.84381 1.3083 1.4345 0.80187 1.6454 0.59085 2.1517 0.0422 0.37971-2.9121 28.521-0.50645 1.1392-1.3505 1.1392-1.6037 0.63286-0.97069 0.0422-1.0551-0.16876-1.1817-0.71724-0.92848-1.1392-0.71747-1.772-2.6166-27.677z"/>
    </g>
  </g>
  <metadata>
    <rdf:RDF>
      <cc:Work>
        <dc:format>image/svg+xml</dc:format>
        <dc:type rdf:resource="http://purl.org/dc/dcmitype/StillImage"/>
        <cc:license rdf:resource="http://creativecommons.org/licenses/publicdomain/"/>
        <dc:publisher>
          <cc:Agent rdf:about="http://openclipart.org/">
            <dc:title>Openclipart</dc:title>
          </cc:Agent>
        </dc:publisher>
        <dc:title>Warning Sign</dc:title>
        <dc:date>2010-04-15T22:36:48</dc:date>
        <dc:description>Warning Sign - Signe de mise en garde - Warnung Zeichen - Avvertenza</dc:description>
        <dc:source>http://openclipart.org/detail/48349/warning-sign-by-palomaironique</dc:source>
        <dc:creator>
          <cc:Agent>
            <dc:title>palomaironique</dc:title>
          </cc:Agent>
        </dc:creator>
        <dc:subject>
          <rdf:Bag>
            <rdf:li>Alarm</rdf:li>
            <rdf:li>Anzeichen</rdf:li>
            <rdf:li>Beweis</rdf:li>
            <rdf:li>Kennzeichen</rdf:li>
            <rdf:li>Schild</rdf:li>
            <rdf:li>Symbol</rdf:li>
            <rdf:li>Tafel</rdf:li>
            <rdf:li>Verkehrszeichen</rdf:li>
            <rdf:li>Warnung</rdf:li>
            <rdf:li>Zeichen</rdf:li>
            <rdf:li>alarme</rdf:li>
            <rdf:li>alerte</rdf:li>
            <rdf:li>allarme</rdf:li>
            <rdf:li>avertissement</rdf:li>
            <rdf:li>avis</rdf:li>
            <rdf:li>avvertenza</rdf:li>
            <rdf:li>avvertimento</rdf:li>
            <rdf:li>avviso</rdf:li>
            <rdf:li>cartello</rdf:li>
            <rdf:li>clip art</rdf:li>
            <rdf:li>clipart</rdf:li>
            <rdf:li>enseigne</rdf:li>
            <rdf:li>impress</rdf:li>
            <rdf:li>indication</rdf:li>
            <rdf:li>information</rdf:li>
            <rdf:li>instruction</rdf:li>
            <rdf:li>label</rdf:li>
            <rdf:li>marque</rdf:li>
            <rdf:li>mise en garde</rdf:li>
            <rdf:li>notice</rdf:li>
            <rdf:li>panel</rdf:li>
            <rdf:li>panneau</rdf:li>
            <rdf:li>pr&#xE9;avis</rdf:li>
            <rdf:li>sign</rdf:li>
            <rdf:li>signboard</rdf:li>
            <rdf:li>signe</rdf:li>
            <rdf:li>simbolo</rdf:li>
            <rdf:li>sticker</rdf:li>
            <rdf:li>symbol</rdf:li>
            <rdf:li>symbole</rdf:li>
            <rdf:li>tag</rdf:li>
            <rdf:li>warning</rdf:li>
            <rdf:li>&#xE9;criteau</rdf:li>
            <rdf:li>&#xE9;tiquette</rdf:li>
          </rdf:Bag>
        </dc:subject>
      </cc:Work>
      <cc:License rdf:about="http://creativecommons.org/licenses/publicdomain/">
        <cc:permits rdf:resource="http://creativecommons.org/ns#Reproduction"/>
        <cc:permits rdf:resource="http://creativecommons.org/ns#Distribution"/>
        <cc:permits rdf:resource="http://creativecommons.org/ns#DerivativeWorks"/>
      </cc:License>
    </rdf:RDF>
  </metadata>
</svg>
